<svg width="188" height="43" viewBox="0 0 188 43" fill="none" xmlns="http://www.w3.org/2000/svg">
<path d="M15.4898 27.5537L19.4163 21.8231C19.4163 20.4485 19.6922 17.2279 20.7959 15.3427C22.1755 12.9861 18.8326 14.8607 17.4531 15.3427C16.0735 15.8247 9.3348 16.0925 4.13486 16.2532C-1.06507 16.4138 0.0492016 12.2899 0.208383 10.8974C0.367565 9.50493 2.01244 9.2907 5.51444 8.166C9.01643 7.0413 11.9348 7.30907 17.4531 6.34505C22.9714 5.38103 26.7387 5.16678 33.212 2.59603C39.6854 0.0252846 42.0732 6.3986 42.4976 7.30908C42.9221 8.21955 40.3222 14.7535 39.8446 14.8607C39.4626 14.9463 30.9481 15.2177 26.7387 15.3427L24.404 20.0557C25.0053 20.502 26.3142 21.4803 26.7387 21.8231C27.2693 22.2516 27.959 23.162 27.959 23.9118V27.5537C26.1727 27.8037 22.2391 28.2714 20.7959 28.1429C19.3526 28.0143 16.6572 27.6965 15.4898 27.5537Z" fill="#8FDDE2"/>
<path d="M35.1753 27.1253V20.5913C34.9807 20.5913 34.7084 20.4842 35.1753 20.0557C35.7589 19.5201 35.812 18.931 37.8814 18.3419C39.9507 17.7528 39.2079 18.3419 39.8446 18.931C40.4813 19.5201 39.8446 20.5913 40.2691 22.4122C40.6936 24.2332 41.6487 23.9118 43.3997 24.3939C45.1507 24.8759 45.2037 24.3939 45.9466 23.4834C46.6894 22.5729 45.9466 22.5729 45.9466 20.5913C45.9466 18.6097 45.2037 18.3954 45.9466 17.1101C46.6894 15.8247 48.1751 16.2532 49.4486 16.2532C50.722 16.2532 51.8363 22.5729 51.8363 26.5361C51.8363 30.4994 51.6241 31.3563 52.5261 34.8375C53.4281 38.3188 49.2894 38.8008 45.9466 40.4075C42.6038 42.0142 39.2079 42.3891 37.1385 42.8711C35.0692 43.3531 33.212 42.3891 31.8325 41.5322C30.4529 40.6753 31.408 40.0326 31.8325 39.5506C32.257 39.0686 32.7876 39.6577 34.1671 39.5506C35.5467 39.4435 37.8283 38.8008 40.2691 37.569C42.7099 36.3371 42.4976 36.0158 43.3997 34.8375C44.3017 33.6593 44.5139 33.445 44.5139 32.7488C44.5139 32.0526 45.0976 30.7672 45.2037 29.8567C45.2886 29.1283 44.7792 28.4106 44.5139 28.1429C43.8418 28.5178 41.8397 29.0426 39.2079 28.1429C36.5761 27.2431 35.4229 27.0896 35.1753 27.1253Z" fill="#8FDDE2"/>
<path d="M65.3137 9.98695C67.3512 10.4583 67.9667 11.3259 68.0198 11.7008C68.1789 11.9864 68.4973 12.6862 68.4973 13.2004C68.4973 13.8431 68.0198 14.0037 68.0198 14.8607C68.0198 15.5462 66.9232 15.4676 66.3749 15.3427C65.4729 15.3427 63.3929 15.4284 62.2892 15.7711C60.9097 16.1996 61.8647 17.1101 61.1219 18.931C60.379 20.752 60.9627 22.4122 62.2892 23.4834C63.6157 24.5545 65.3137 23.4834 66.3749 22.4122C67.4361 21.3411 68.0198 20.5913 70.4075 19.6808C72.7952 18.7703 72.8483 20.0557 75.8197 21.3946C78.7911 22.7336 77.3584 24.3939 77.7298 26.5361C78.098 28.6593 73.9841 29.8356 70.8115 30.7427L70.7259 30.7672C67.5422 31.6777 63.0851 30.4458 60.5382 29.8567C57.9913 29.2676 57.2485 28.1429 56.7709 26.5361L56.736 26.4187C56.2779 24.8787 55.975 23.8605 55.975 21.8231C55.975 19.7344 55.3914 18.3419 55.975 16.2532C56.5587 14.1644 56.6117 13.8431 57.2485 12.5577C57.8852 11.2723 57.7791 10.8974 60.0607 9.2907C62.3423 7.68399 62.7668 9.39782 65.3137 9.98695Z" fill="#8FDDE2"/>
<path d="M83.8318 26.5361C84.7232 28.6356 85.7951 28.8391 86.2195 28.6784C86.5025 29.0712 87.5248 29.8567 89.3501 29.8567C91.6317 29.8567 91.1542 29.8567 93.8603 28.1429C96.5663 26.429 95.7174 27.1253 99.3255 24.3939C102.934 21.6624 100.917 20.5913 101.183 17.1101C101.448 13.6288 98.5296 13.2004 95.7174 11.7008C92.9052 10.2012 90.5705 11.7008 87.7052 11.7008C84.84 11.7008 85.2114 13.2004 83.8318 14.8607C82.4522 16.5209 81.8155 18.3419 81.8155 20.5913C81.8155 22.8407 82.7175 23.9118 83.8318 26.5361Z" fill="#8FDDE2"/>
<path d="M106.542 16.2532C107.125 15.3962 107.178 13.736 107.285 13.2004H106.542C106.789 12.9862 107.359 12.2899 107.656 11.2188C108.027 9.87983 108.346 9.98695 109.036 8.75513C109.725 7.52331 110.415 7.30907 112.75 6.34505C115.084 5.38103 115.88 6.34505 118.586 7.30908C121.293 8.2731 120.391 8.80869 120.868 9.98695C121.346 11.1652 121.186 12.5577 120.868 13.8431C120.55 15.1284 116.305 17.1101 113.44 18.931C110.574 20.752 110.256 20.0557 109.831 20.5913C109.407 21.1269 111.158 20.5913 112.75 20.5913H117.207C119.595 20.5913 118.586 22.4122 119.489 24.3939C120.391 26.3755 118.48 28.1429 117.207 29.8567C115.933 31.5705 113.121 30.7672 111.158 30.7672C109.195 30.7672 108.08 30.7672 105.852 29.8567C103.623 28.9462 104.685 28.1429 103.889 26.0006C103.093 23.8583 103.783 23.4834 104.685 20.5913C105.587 17.6992 105.958 17.1101 106.542 16.2532Z" fill="#8FDDE2"/>
<path d="M127.819 14.8607C128.286 14.475 129.535 12.2721 130.101 11.2188V9.2907V6.34505C130.101 4.73833 131.905 5.00613 133.974 4.30988C136.043 3.61364 134.876 4.73834 135.566 7.30908C135.846 8.35308 135.782 9.14682 135.592 9.71271C136.07 9.0721 136.745 8.22841 137.582 7.30908C139.386 5.32745 138.272 4.84545 141.721 2.59603C145.17 0.346619 143.843 3.23873 144.427 6.34505C145.011 9.45138 143.737 9.2907 143.154 11.7008C142.57 14.1109 139.545 14.3251 137.582 16.2532C135.619 18.1812 137.847 17.1101 139.227 17.7528C140.607 18.3954 141.137 17.7528 145.329 17.7528C149.521 17.7528 148.619 18.931 151.166 20.5913C153.713 22.2516 152.386 23.0014 152.492 24.3939C152.598 25.7863 151.484 28.1429 150.158 30.7672C148.831 33.3915 148.884 31.6241 145.329 30.7672C141.774 29.9103 142.251 28.6784 141.137 27.3931C140.023 26.1077 138.537 26.5361 136.574 24.3939C134.611 22.2516 134.558 21.3946 134.558 22.4122C135.141 23.4298 134.505 25.465 133.974 28.1429C133.443 30.8207 132.594 29.8567 130.897 30.7672C129.199 31.6777 127.819 30.7672 126.811 29.8567C125.803 28.9462 126.811 28.6784 126.333 27.3931C125.856 26.1077 125.219 24.3939 125.325 22.4122C125.431 20.4306 125.856 20.5913 126.811 18.3419C127.766 16.0925 127.235 15.3427 127.819 14.8607Z" fill="#8FDDE2"/>
<path d="M157.851 14.8607C157.299 14.1323 155.57 10.8439 154.774 9.2907L158.753 7.30908C159.744 7.30908 161.905 7.7054 162.627 9.2907C163.529 11.2723 162.786 11.2188 165.068 18.3419C167.349 25.465 167.084 17.1101 168.357 14.8607C169.631 12.6112 167.19 11.7008 166.394 8.75513C165.598 5.80948 167.667 5.80947 170.533 2.59603C173.398 -0.617406 176.529 0.400201 178.014 0.0253C179.5 -0.349601 180.667 3.50652 182.896 7.30908C185.124 11.1116 184.753 11.2188 187.035 15.3427C189.316 19.4666 186.928 20.5913 186.239 26.0006C185.549 31.4099 182.79 31.517 180.667 33.7128C178.545 35.9087 176.529 32.7488 174.406 29.8567C172.284 26.9646 174.406 27.3931 175.308 26.0006C176.21 24.6081 176.529 23.0014 176.529 20.5913C176.414 20.0607 175.567 17.9328 174.599 15.5938C174.377 16.3189 173.786 16.9852 173.557 18.931C173.186 22.0909 172.018 23.0014 171.329 25.465C170.639 27.9286 168.57 27.3931 165.068 29.8567C161.566 32.3203 161.035 28.6784 158.753 28.1429C156.472 27.6073 157.851 26.5361 157.215 25.465C156.578 24.3939 157.215 23.0014 157.851 19.6808C158.488 16.3603 158.541 15.7711 157.851 14.8607Z" fill="#8FDDE2"/>
</svg>
